<svg xmlns="http://www.w3.org/2000/svg" version="1.1" xmlns:xlink="http://www.w3.org/1999/xlink" xmlns:svgjs="http://svgjs.dev/svgjs" viewBox="0 0 800 800"><defs><linearGradient x1="50%" y1="0%" x2="50%" y2="100%" id="ssscribble-grad"><stop stop-color="hsl(206, 75%, 49%)" stop-opacity="1" offset="0%"></stop><stop stop-color="hsl(331, 90%, 56%)" stop-opacity="1" offset="100%"></stop></linearGradient></defs><g fill="none" stroke-width="1.5" stroke="hsl(0, 0%, 10%)" stroke-linecap="round"><path d="M1760.03 503.56C1667.73 527.72 1688.57 552.99 1802.59 579.27 1912.89 605.47 1925.07 632.52 1829.29 660.19 1703.47 687.54 1648.51 715.16 1704.82 742.7 1824.32 769.44 1907.74 795.53 1887.66 820.47 1777.64 843.92 1659.49 865.48 1618.47 884.57 1766.89 921.67 1586.7 933.48 1703.61 924.98 1793.02 919.41 1808.22 914.06 1736.1 910.48 1617.27 911.48 1520.65 917.2 1497.47 929.25 1554.06 949.19 1648.17 977.23 1718.25 1013.82 1720.15 1057.94 1647.18 1108.88 1535.21 1164.84 1436.83 1222.19 1396.89 1278.82 1426.09 1331.17 1541.44 1391.97 1548.64 1431.66 1402.49 1408.19 1311.6 1381.01 1266.79 1349.71 1276.79 1319.88 1330.69 1298.63 1399.05 1289.75 1450.48 1297.39 1463.45 1323.67 1428.31 1367.47 1354.5 1425.65 1260.42 1491.79 1171.85 1558.94 1108.9 1618.74 1082.24 1663.31 1092.54 1687.3 1129.11 1687.79 1178.97 1666.86 1222.84 1628.8 1247.23 1581.81 1245.57 1537.61 1214.8 1505.29 1160.29 1493.71 1088.78 1508.38 1011.99 1548.69 939.83 1609.65 877.91 1681.17 833.06 1751.05 806.14 1806.36 796.45 1836.93 800.46 1837.37 813.08 1808.38 832.38 1758.59 851.3 1699.6 866.17 1646.52 877.36 1614.49 880.37 1612.12 875.08 1642.36 863.19 1700.08 843.92 1772.83 818.99 1844.1 789.32 1897.15 756.52 1919.31 722.28 1905.14 685.85 1859.51 649.87 1794.03 615.33 1726.53 580.13 1676.74 547.24 1658 517.07 1676.56 486.79 1728.53 459.49 1799.84 435.33 1870.96 411.17 1922.1 390.43 1938.28 372.98 1915.48 355.43 1860.46 340.92 1787.89 329.05 1717.14 316.53 1666.61 305.79 1648.54 295.87 1666.19 283.77 1714.35 270.6 1778.47 254.7 1840.92 234.06 1885.97 208.16 1900.55 175.32 1880.65 135.88 1830.56 88.57 1761.13 33.55 1687.75 -25.15 1625.84 -87.46 1587.84 -149.64 1579.93 -205.14 1602.11 -251.54 1646.49 -283.73 1700.97 -298.68 1753.11 -295.18 1789.02 -274.07 1800.04 -242.71 1783.15 -206.17 1739.9 -174.33 1677.73 -159.5 1606.63 -167.82 1538.44 -204.65 1483.43 -267.53 1448.93 -349.27 1438.38 -436.38 1450.36 -510.19 1481 -557.08 1521.58 -566.37 1562.99 -539.35 1597.94 -486.04 1617.9 -426.54 1618.67 -387.31 1599.26 -386.04 1560.7 -432.16 1507.4 -516.74 1444.56 -617.52 1379.3 -703.09 1318.06 -744.76 1265.62 -730.86 1226.48 -670.1 1202.31 -595.02 1193.58 -542.48 1198.3 -544.51 1213.16 -608.91 1235.73 -714.18 1260.44 -817.63 1283.12 -873.71 1301.78 -859.79 1312.05 -786.58 1312.33 -699.76 1302.55 -651.08 1281.95 -676.36 1251.74 -769.83 1213.09 -886.42 1168.12 -964.56 1119.18 -962.94 1067.27 -886.94 1015.38 -787.77 965.25 -735.32 917.1 -769.22 873.08 -876.34 833.7 -992.47 798.61 -1046.17 768.49 -1004.24 742.87 -900.62 721.45 -811.18 703.6 -805.75 688.44 -957.47 670.82 -1010 642.19 -855.44 627.87 -844.68 618.61 -936.33 607.91 -1062.91 595.52 -1126.3 583.24 -1077.28 569.06 -956.24 552.91 -865.25 536.72 -881.04 518.54 -993.75 498.36 -1110.2 478.16 -1132.26 455.98 -1039.96 431.82 -913.15 407.66 -860.67 381.79 -925.34 354.27 -1051.47 326.74 -1130.81 297.51 -1097.13 266.63 -977.61 235.73 -868.5 203.19 -854.91 169.12 -944.39 135.17 -1061.21 99.89 -1110.55 63.58 -1052.22 27.86 -928.32 -8.34 -829.79 -44.46 -825.66 -79.05 -913 -112.56 -1021.48 -144.17 -1069.12 -172.85 -1017.09 -198.38 -899.35 -219.85 -778.27 -243.25 -964.64 -257.34 -988.61 -248.66 -897.2 -239.33 -778.27 -227.69 -698.34 -215.46 -697.65 -206.19 -768.18 -200.32 -860.46 -200.15 -917.14 -208.42 -899.93 -225.69 -814.75 -253.15 -701.06 -290.66 -612.78 -337.54 -586.42 -392.13 -627.07 -450.75 -705.69 -510.72 -777.22 -567.86 -804.23 -617.3 -768.41 -655.9 -682.4 -680.32 -576.86 -689.31 -490.85 -682.6 -451.03 -661.83 -465.1 -632.26 -519.06 -597.91 -584.97 -565.2 -635.5 -542.03 -646.54 -532.81 -611.92 -541.93 -538.83 -571.22 -446.87 -618.9 -359.11 -680.71 -293.49 -749 -262.9 -815.61 -267.31 -871.41 -300.34 -908.56 -346.44 -922.3 -389.73 -911.19 -419.31 -879.57 -423.99 -833.86 -401.85 -784.31 -355.09 -743.7 -290.68 -721.07 -218.03 -723.83 -143.69 -754.5 -77.67 -809.1 -24.95 -878.95 12.87 -951.15 34.42 -1012.25 42.33 -1050.14 38.14 -1057.94 27.11 -1034.64 13.57 -986.36 -8.25 -898.2 -22.1 -835.29 -9.76 -902.15 5.01 -973.93 24.84 -1046.27 48.28 -1101.52 74.5 -1126.25 102.52 -1114.15 131.14 -1068.4 160.91 -1002.44 190.06 -933.48 217.9 -880.87 245.99 -860.47 272.25 -877.86 296.41 -928.99 320.58 -1000.11 342.36 -1070.2 361.98 -1119.76 381.87 -1135.92 400.13 -1113.58 417.42 -1059.01 435.87 -986.74 454.57 -915.31 474.69 -862.59 497.59 -841.32 523.74 -855.25 554.52 -898.98 589.74 -960.91 630.94 -1023.24 678.66 -1069.46 730.14 -1088.2 786.62 -1073.25 846.2 -1027.59 903.58 -960.88 957.98 -887.2 1005.05 -821.71 1050.45 -768.86 1041.74 -836.75 995.87 -914.2 964.02 -955.51 939.86 -975.2 932.78 -968.33 950.31 -935.2 994.08 -880.4 1062.16 -812.82 1143.93 -742.45 1227.9 -680.09 1298.17 -633.99 1339.83 -609.32 1345.84 -607.28 1316.16 -624.96 1264.33 -657.89 1207.63 -697.32 1169.12 -734.93 1169.07 -764.58 1213.98 -779.04 1297.67 -775.2 1396.73 -752.72 1483.11 -712.93 1528.85 -660.01 1520.69 -598.51 1465.6 -534.79 1390.19 -474.46 1334.31 -421.56 1327.84 -380.23 1383.38 -352.1 1483.43 -337.77 1589.77 -335.94 1657.3 -344.08 1657.82 -360.49 1595.57 -380.52 1507.03 -400.63 1447.01 -419.35 1454.09 -432.42 1534.15 -438.05 1649.82 -436.16 1742.83 -425.11 1763.7 -405.37 1705.32 -377.76 1607.01 -343.22 1535.26 -303.43 1543.29 -259.05 1633.19 -212.35 1754.83 -164.9 1833.58 -116.68 1821.91 -69.97 1730.73 -25.58 1628.7 17.11 1591.35 56.56 1652.62 92.74 1774.74 126.41 1874.66 156.97 1882.04 184.81 1795.03 210.45 1681.56 234.06 1632.55 256.18 1691.21 276.81 1816.25 296.69 1912.82 316.3 1906.31 335.1 1803.14 354.2 1688.4 373.91 1659.5 393.3 1742.46 413.66 1871.01 435.18 1938.09 456.63 1886.84 479.39 1760.03 503.56Q1760.03 503.56 1760.03 503.56" opacity="0.33"></path><path d="M1690.03 494.26C1599.95 517.21 1611.04 538.7 1712.69 558.7 1826.29 578.64 1863.32 596.98 1796.04 613.62 1630.64 637.35 1744.89 674.73 1841.95 688.09 1786.73 696.12 1669.95 702.28 1569.62 706.78 1549.86 711.66 1618.84 715.52 1724.81 718.91 1795.04 723.89 1779.39 729.57 1685.82 736.84 1569.31 747.42 1498.13 761.05 1509.14 778.68 1589.99 801.16 1685.47 828.7 1734.91 861.75 1706.57 899.73 1612.29 942.78 1500.74 990.26 1426.43 1039.99 1422.97 1091.46 1483.76 1142.74 1572 1190.8 1635.67 1234.38 1639.32 1271.08 1577.44 1298.84 1475.29 1316.5 1375.57 1323 1316.3 1319.34 1317.08 1305.81 1368.88 1284.32 1444.58 1259.39 1505.46 1233.26 1523.18 1210.18 1487.67 1195.52 1408.47 1191.69 1311.38 1201.67 1224.5 1227.01 1173.03 1266.95 1166.3 1319.43 1200.37 1379.8 1256.94 1443.13 1312.96 1503.09 1349.78 1552.93 1351.82 1587.74 1316.98 1603.57 1251.22 1599.81 1168.85 1577.64 1086.47 1541.37 1016.89 1499.22 971.91 1458.22 954.52 1426.99 963.36 1413.74 990.75 1422.14 1026.56 1453.59 1063.59 1505.06 1090.54 1569.83 1101.82 1638.42 1095.82 1699.77 1071.17 1744.27 1031.12 1764.42 978.34 1757.86 918.78 1726.4 857.57 1677.09 796.33 1622.19 740.69 1573.21 692.51 1542.11 651.21 1537.95 618.55 1562.81 593.41 1613.43 574.88 1680.38 561.51 1750.31 551.35 1808.54 544.84 1842.82 539 1845.69 532.46 1816.62 527.18 1763.63 519.8 1698.86 509.71 1638.38 499.84 1598.38 486.85 1588.57 470.57 1612.43 454.28 1665.06 434.69 1733.57 411.74 1800.96 388.78 1850.28 362.74 1868.38 333.69 1851.16 304.63 1803.4 272.59 1736.58 237.75 1666.93 203.12 1610.86 166.12 1580.91 127.37 1582.91 89.89 1615.83 52.06 1670.07 15.27 1731.82 -17.85 1787.03 -47.38 1821.39 -71.35 1826.79 -88.7 1801.84 -98.13 1750.83 -98.48 1684.08 -91.95 1614.4 -77.51 1555.06 -57.01 1516.39 -36.54 1504.49 -17.25 1519.36 -4.25 1555.65 -3.98 1605.36 -18.61 1656.13 -51.39 1696.88 -101.43 1719.72 -166.62 1718.38 -241.34 1692.33 -314.83 1645.05 -379.36 1583.31 -424.77 1516.2 -443.94 1452.53 -434.94 1400.97 -400.74 1367.14 -353.74 1354.01 -306.15 1360.85 -274.52 1383.84 -273.82 1418.48 -309.36 1456.65 -379.03 1491.24 -467.89 1517.26 -556.64 1528.78 -622.2 1523.47 -646.97 1501.31 -626.3 1463.56 -569.5 1413.86 -502.5 1356.03 -452.67 1295.55 -445.78 1237.3 -492.12 1184.76 -580.88 1141.84 -683.68 1110.33 -762.59 1091.03 -789.71 1083.43 -755.96 1085.74 -643.06 1104.94 -637.3 1158.27 -791.13 1177.01 -874.13 1182.5 -892.03 1180.44 -838.19 1170.71 -747.12 1153.94 -672.43 1130.1 -662.77 1100.32 -730.88 1065.23 -844.14 1026.33 -941.8 985.01 -969.64 941.34 -914.35 897.35 -812.75 854.01 -734.1 810.75 -732.41 769.39 -815.59 730.28 -934.51 692.53 -1015.45 657.35 -1006.62 624.66 -917.22 593.56 -810.36 564.67 -763.99 537.66 -815.46 511.9 -932.18 487.53 -1033.92 464.15 -1049.03 441.54 -967.48 419.46 -850.22 397.58 -787.47 376.06 -827.94 354.4 -943.84 332.42 -1047.79 310.53 -1060.04 288.13 -969.96 265.18 -848.5 242.23 -790.48 218.98 -839.18 195.54 -956.24 172.18 -1050.01 148.8 -1049.17 125.61 -954.08 102.78 -834.32 80.48 -775.8 59.06 -818.18 38.41 -926.69 19.11 -1020.31 1.58 -1031.34 -14.69 -949.34 -28.71 -829.27 -40.1 -749.21 -49.91 -758.76 -56.82 -845.33 -60.71 -948.18 -63.25 -995.14 -63.1 -953.68 -60.58 -791.86 -56.12 -764.17 -49.03 -896.72 -52.89 -928.49 -61.87 -881.37 -76.27 -778.71 -97.18 -671.05 -125.14 -610.93 -160.22 -621.98 -202.27 -692.08 -249.61 -777.83 -301.5 -831.27 -355.96 -823.06 -409.55 -752.42 -460.5 -648.8 -505.75 -564.42 -566.39 -689.84 -509.62 -591.12 -467.04 -493.91 -447.42 -408.76 -439.03 -357.56 -445.49 -349.95 -468.8 -381.29 -508.19 -434.73 -561.31 -491.41 -623 -528.85 -687.5 -534.39 -747.68 -504.56 -796.2 -444.1 -827.78 -365.77 -838.56 -282.47 -828.64 -210.24 -800.15 -158.94 -758.7 -133.02 -713.8 -132.47 -673.42 -151.28 -646.61 -183.76 -641.03 -218.73 -659.27 -247.82 -700.78 -267.09 -760.21 -270.21 -828.74 -256.62 -895.28 -227.44 -948.4 -185.16 -979.16 -134.13 -982.19 -76.32 -958.44 -17.49 -913.05 38.97 -856.33 93.14 -802.53 140.99 -763.47 182.07 -749.45 217.7 -765.77 246.9 -810.04 270.94 -874.1 290.64 -944.71 307.19 -1006.76 322.08 -1046.41 334.71 -1055.16 347.4 -1030.86 361.14 -979.34 374.08 -914.23 388.99 -850.84 406.36 -805.37 423.57 -790.43 443.56 -809.69 466.52 -858.99 489.47 -926.38 515.11 -993.73 543.24 -1044.08 571.21 -1065.65 601.34 -1052.42 633.11 -1007.89 664.08 -942.87 695.77 -872.45 727.16 -812.73 756.31 -776.92 783.42 -771.97 807.02 -797.38 826.27 -846.75 839.97 -906.76 846.84 -962.79 848.26 -1002.48 842.49 -1015.39 829.97 -998.29 815.14 -954.25 797.52 -891.32 780.45 -821.5 770.16 -757.27 768.15 -709.92 778.76 -686.53 804.95 -689.84 847.35 -716.57 905.38 -759.24 973.23 -809.15 1046.44 -854.33 1116.61 -885.33 1173.11 -896.31 1209.7 -883.36 1220.35 -847.9 1205.61 -794.46 1169.36 -730.38 1121.44 -664.34 1078.49 -604.17 1052.8 -557.26 1057.11 -527.97 1096.79 -518.26 1167.74 -526.73 1257.25 -549.47 1343.54 -582.31 1407.06 -617.77 1430.94 -649.51 1411.24 -673.38 1356.89 -683.96 1289.77 -679.22 1240.44 -659.11 1231.19 -624.48 1273.82 -578.34 1358.91 -523.76 1460.73 -465.46 1543.95 -407.68 1578.2 -353.35 1553.21 -306.31 1482.73 -268.5 1404.65 -240.86 1358.73 -223.74 1374.42 -216.13 1451.76 -217.45 1560.59 -225.04 1652.9 -236.53 1686.17 -251.25 1647.41 -265.58 1560.22 -277.62 1478.04 -287.41 1450.51 -292.22 1500.96 -291.44 1607.35 -285.73 1714.79 -273.99 1764.47 -256.69 1730.72 -234.55 1636.99 -207.91 1544.89 -177.74 1518.35 -144.27 1579.26 -108.75 1695.06 -72.08 1794.59 -33.83 1816.1 4.39 1746.98 42 1637.84 80 1565.75 116.75 1585.63 152.01 1688.11 187.07 1804.43 220.47 1853.53 252.18 1801.74 283.58 1687.63 313.38 1597.09 341.65 1600.78 369.72 1697.99 396.42 1817.34 421.82 1868.34 447.16 1811.49 471.3 1690.03 494.26Q1690.03 494.26 1690.03 494.26" opacity="0.32"></path><path d="M1620.03 299.29C1532.48 321.03 1534.61 341.49 1623.11 360.7 1736.06 379.98 1793.73 398.15 1756.85 415.36 1650.13 432.83 1544.27 449.62 1507.36 465.99 1561.13 482.99 1666.75 500.02 1753.15 517.47 1764.03 536.1 1690.21 555.75 1576.47 576.89 1489.66 599.86 1479.05 624.95 1545.54 652.57 1646.2 682.46 1716.96 715.24 1714.48 751.06 1637.78 788.91 1527.03 829.44 1439.72 872.28 1418.09 915.69 1468.01 960 1556.65 1004.16 1634.51 1046.09 1656.51 1085.54 1609.31 1121.02 1512.55 1150.92 1409.57 1174.55 1343.9 1190.75 1339.86 1199.47 1392.69 1200.16 1471.93 1193.04 1539.43 1180.35 1560.63 1162.45 1524.27 1141.41 1441.61 1121.27 1342.37 1103.38 1260.45 1090.79 1220.44 1087.15 1231.2 1093.61 1281.36 1111.85 1349.26 1142.27 1405.13 1183.98 1427.22 1235.09 1406.21 1291.76 1345.43 1350.45 1261.13 1406.37 1172.83 1454.27 1102.36 1490.39 1063 1511.26 1059.36 1515.68 1086.42 1503.66 1131.48 1477.39 1181.69 1442.47 1220.02 1403.62 1236.09 1367.59 1225.62 1342.15 1188.24 1331.73 1130.36 1340.22 1059.04 1368.8 985.61 1415.11 919.1 1474.31 864.7 1538.74 827.99 1600.15 809.22 1649.86 807.44 1680.82 818.5 1688.83 837.22 1673.06 861.3 1637.93 883.78 1589.71 901.02 1538.04 914.15 1481.23 882.54 1510.67 842.35 1595.64 808.1 1662.41 770.76 1721.89 732.16 1762.7 691.36 1777.32 651.42 1762.86 613.28 1722.41 574.79 1665.73 538.9 1604.44 505.86 1552.36 472.99 1522.26 442.98 1520.72 415.79 1549.03 388.7 1601.77 364.28 1667.3 342.54 1730.96 320.79 1778.36 301.98 1798.08 286.12 1786.05 270.35 1745.48 257.69 1685.09 248.21 1618.14 235.81 1539.11 225.22 1544.3 224.3 1619.9 220.23 1701.76 192.56 1739.77 159.32 1677.48 126.6 1614.43 85.02 1548.26 34.56 1489.97 -21.26 1448.63 -81.89 1429.97 -143.66 1435.15 -200.07 1462.08 -248.35 1503.58 -283.28 1550.79 -301.23 1595.54 -300.75 1628.12 -282.06 1642.42 -251.26 1635.82 -213.02 1607.83 -176.33 1562.04 -153.09 1503.9 -149.8 1440.8 -172.85 1380.26 -222.43 1328.57 -293.71 1291.17 -376.25 1270.67 -453.66 1267.94 -512.46 1280.77 -539.94 1305.23 -531.69 1337.62 -491.71 1371.27 -433.24 1400.85 -378.78 1423 -347.18 1433.09 -354.67 1429.43 -405.26 1412 -488.95 1381.31 -583.97 1339.8 -661.25 1289.96 -698.41 1235.67 -684.09 1180.59 -627.84 1127.2 -553.55 1079.09 -495.08 1038.27 -482.91 1005.75 -527.53 982.47 -617.67 968.01 -756.9 962.64 -725.25 985.83 -606.53 1003.85 -578.72 1015.64 -619.28 1024.48 -714.83 1029.47 -854.54 1029.69 -763.01 999.77 -652.59 970.98 -664.24 947.1 -748.22 920.33 -861.15 891.44 -939.92 860.38 -940.63 828.23 -864.18 795.65 -760.8 761.99 -696.37 728.63 -715.64 695.98 -810.43 662.95 -923.45 631.01 -983.59 600.36 -953.06 569.67 -852.55 540.39 -750.13 512.59 -717.55 484.84 -778.48 458.56 -893.6 433.8 -984.28 409.05 -987.51 385.79 -899.96 364.04 -784.03 342.3 -721.58 322.33 -754.88 304.12 -911.03 277.73 -869.5 233.99 -721.57 216.59 -712.39 205.53 -787.1 196.09 -893.69 188.1 -962.58 179.75 -947.28 172.46 -856.4 165.86 -708.77 154.32 -815.27 125.38 -918.5 104.53 -896.37 86.43 -807 64.86 -697.24 39.24 -622 9.55 -616.76 -24.52 -677.46 -63.02 -768.21 -104.73 -836.52 -149.8 -844.92 -197.3 -786.38 -244.94 -685.79 -292.29 -587.04 -337.53 -530.03 -378.19 -535.03 -413.26 -592.31 -440.92 -703.24 -464.81 -664.67 -452.82 -524.47 -422.36 -464.14 -364.32 -602.76 -396.25 -535.05 -464.46 -451.93 -521.15 -364.66 -581.22 -292.6 -639.29 -248.63 -689.43 -239.07 -727.21 -259.58 -748.67 -301.73 -752.37 -349.77 -738.4 -389.66 -709.36 -412.37 -671.46 -409.64 -630.22 -381.39 -593.12 -330.78 -568.37 -265.49 -560.62 -194.67 -573.41 -124.72 -607.09 -64.74 -658.23 -19.07 -720.67 10.83 -785.58 24.47 -843.91 24.72 -886.79 13.38 -907.92 -3.97 -904.31 -22.92 -877.11 -42.69 -832.96 -57.7 -780 -66.14 -729.22 -69.11 -692.45 -64.07 -677.27 -51.81 -688.4 -33.68 -725.49 -10.04 -782.35 17.46 -848.86 48.58 -912.42 81.39 -960.7 114.56 -983.94 149.24 -977.97 182.88 -943.82 214.77 -888.86 247.07 -826.21 277.05 -769.07 304.39 -730.66 331.8 -720.79 356.43 -741.6 378.18 -788.99 399.93 -852.65 418.52 -917.08 434.07 -967.65 449.67 -993.8 462.37 -989.02 472.42 -954.63 482.89 -898.25 491.3 -831.61 498.32 -768.56 506.87 -721.73 515.44 -699.85 525.32 -706.07 538.82 -738.48 555.83 -788.57 577.97 -844.99 605.96 -896.55 640.79 -931.33 683.21 -942.06 731.11 -926.57 785.16 -886.6 843.52 -829.04 901.07 -763.24 956.58 -699.97 1005.61 -648.89 1054.83 -612.76 1052.61 -675.04 1006.5 -741.5 956.32 -794.35 947.37 -786.24 1019.28 -722.02 1092.68 -663.35 1173.67 -601.07 1248.15 -541.96 1301.01 -491.51 1323.19 -454.53 1310.33 -433.27 1269.39 -428.46 1212.61 -438.16 1159.32 -458.94 1131.25 -487.75 1140.81 -518.61 1192.34 -546.78 1275.06 -569.4 1368.74 -581.92 1446.67 -582.52 1485.21 -570.92 1474.35 -546.9 1420.06 -512.15 1347.86 -468.45 1288.17 -418.82 1270.69 -366.34 1309.36 -312.96 1394.66 -262.12 1497.3 -215.9 1577.22 -175.26 1604.08 -141.87 1568.12 -115.94 1446.19 -86.62 1678.21 -99.31 1624.71 -108.58 1533.13 -112.2 1715.86 -77.56 1584.25 -52.87 1503.72 -33.76 1497.82 -12.77 1575.1 9.6 1690.08 33.17 1772.19 57.51 1769.38 82.22 1685.23 107.56 1575.78 132.82 1516.03 157.71 1549.16 182.85 1654.59 207.35 1761.83 231.02 1797.31 254.76 1735.96 277.54 1620.03 299.29Q1620.03 299.29 1620.03 299.29" opacity="0.78"></path><path d="M1549.98 302.65C1465.27 323.19 1459.36 344.76 1534.3 367.36 1642.98 390.01 1716.28 413.78 1709.23 438.73 1626.11 463.85 1516.35 490.3 1444.04 518.13 1449.65 546.24 1526.79 575.86 1627.55 606.97 1693.09 638.35 1683.66 671.16 1603.89 705.27 1495.83 739.29 1416.28 774.22 1404.1 809.66 1462.11 844.18 1554.98 878.39 1630.88 911.62 1649.29 942.6 1597.88 971.41 1500.59 997.21 1414.62 1044.19 1552.1 1048.23 1439.66 1029.39 1311.22 991.86 1467.32 998.49 1422.32 1038.48 1341.63 1076.8 1250.25 1122.62 1173.62 1173.99 1130.15 1227.45 1128.28 1280.5 1162.12 1329.55 1218.41 1370.78 1275.49 1401.67 1314.68 1419.77 1324.47 1424.36 1299.17 1415.33 1243.99 1394.1 1168.73 1364.86 1088.91 1330.72 1018.63 1296.67 954.98 1260.44 983.02 1277.63 1039.2 1338.08 1074.24 1393.72 1096.31 1454.21 1101.38 1512.68 1088.63 1561.95 1058.27 1596.3 1014.08 1611.34 959.02 1606.03 899.29 1581.45 839.81 1541.86 782.43 1495.27 732.18 1449 690.61 1411.7 657.44 1391.57 633.57 1392.57 617.6 1416.3 608.93 1460.33 605.3 1518.36 604.65 1581.54 609.04 1661.34 614.77 1686.07 611.51 1623.91 607.88 1567.08 601.01 1511.64 591.02 1468.9 580.57 1448.5 567.29 1454.43 551.44 1486.35 535.43 1538.67 517.11 1601.03 496.57 1660.97 476.03 1706.38 453.52 1727.39 428.96 1720.13 404.26 1686.57 377.23 1633.08 347.68 1570.24 317.67 1510.05 284.83 1463.56 249.06 1438.83 212.85 1440.01 173.92 1465.51 132.7 1509.41 92.17 1563.59 50.77 1616.51 9.86 1658.01 -27.5 1680.96 -61.53 1680.09 -90.12 1655.31 -111.42 1610.46 -124.42 1552.28 -127.69 1489.69 -122.57 1431.65 -108.36 1386.38 -86.58 1359.4 -62.69 1353.58 -38.11 1367.84 -17.73 1398.12 -8.23 1439.34 -12.07 1483.1 -33.05 1521.89 -71.84 1550.2 -127.14 1562.24 -194.9 1555.86 -266.11 1531.42 -333.67 1491.03 -387.8 1439.2 -419.86 1380.95 -425.92 1322.53 -405.34 1269.47 -365.61 1226.01 -315.76 1195.65 -269.89 1179.68 -244.1 1178.35 -247.59 1189.57 -285.55 1210.2 -352.92 1237.7 -437.56 1266.87 -520.77 1293.68 -581.53 1315.86 -605.94 1329.36 -588.08 1332.5 -537.06 1324.99 -470.62 1306.25 -414.19 1277.49 -392.68 1240.02 -417.76 1196.13 -487.26 1148.33 -580.74 1098.21 -669.35 1048.78 -722.93 1002.04 -723.73 958.86 -673.89 921.18 -595.76 889.58 -526.7 864.18 -498.81 845.11 -530.18 831.77 -612.42 824.01 -714.43 820.51 -794.08 820.12 -817.61 823.02 -776.59 827.12 -692.36 831.41 -610.13 836.59 -572.93 840.5 -604.68 842.58 -693.94 843.92 -799.28 842.74 -868.89 838.93 -868.3 833.71 -799.45 825.82 -701.17 815.47 -631.18 803.72 -630.62 789.82 -704.08 774.13 -812.77 757.39 -896.89 739.29 -908.53 720.16 -842.23 700.42 -737.53 680.04 -658.47 659.3 -655.48 638.28 -731.86 617.18 -842.59 596.17 -919.59 575.09 -914.72 554.24 -830.01 533.7 -719.79 513.17 -653.97 493.18 -672.69 473.7 -763.51 454.14 -868.12 434.95 -921.54 415.96 -891.42 396.7 -795.13 377.36 -689.56 357.72 -635.1 337.45 -661.03 316.48 -748.64 294.48 -846.06 271.45 -894.81 246.95 -866.6 220.68 -775.54 193.02 -669.52 163.25 -602.7 131.21 -606.81 97.76 -675.13 62.07 -767.57 24.27 -834.69 -14.24 -838.85 -54.19 -776.53 -94.96 -675.34 -134.84 -581.18 -174.09 -534.05 -211.68 -550.97 -245.97 -618.6 -276.69 -701.21 -302.66 -759.8 -323.04 -764.56 -337.21 -711.72 -344.52 -620.05 -345.64 -524.15 -340.15 -457.79 -328.63 -441.42 -313.55 -475.7 -295.24 -541.53 -275.65 -611.72 -258.4 -655.71 -244.49 -655.88 -236.4 -609.87 -237.02 -530.29 -247.07 -440.19 -267.74 -362.67 -299.05 -317.67 -340.1 -312.32 -389.2 -343.51 -442.93 -396.51 -498.37 -452.26 -551.48 -494.63 -597.72 -508.51 -633.89 -489.33 -656.82 -439.61 -665.11 -368.98 -658.32 -290.93 -637.7 -217.21 -607.48 -160.49 -571.19 -126.92 -534.32 -118.28 -503.88 -131.6 -484.13 -159.82 -479.56 -196.97 -493.05 -232.45 -524.2 -259.06 -570.82 -273.48 -627.93 -271.04 -689.22 -252.08 -747.15 -218.04 -794.15 -172.28 -824.31 -119.29 -833.55 -61.25 -821.63 -3.87 -790.58 49.65 -745.89 99.01 -696.64 140.84 -650.94 174.92 -617.67 202.11 -604.48 222.33 -614.3 237.07 -647.03 246.67 -698.31 253.2 -760.09 258.25 -822.2 262.37 -890.27 275.13 -874.31 286.94 -797.47 295.65 -738.7 307.27 -688.28 321.87 -656.76 336.49 -651.54 354.06 -673.59 374.6 -718.98 395.14 -778.92 418.4 -840.25 444.34 -890.51 470.31 -920.39 498.99 -923.26 530.28 -898.81 561.51 -852.01 595.15 -791.52 630.8 -728.67 665.73 -674.8 701.76 -639.17 737.9 -627.26 771.58 -640.63 803.44 -675.2 831.86 -723.49 855.14 -776.89 872.58 -824.22 882.65 -856.67 885.83 -868.81 880.88 -857.35 867.97 -823.87 850.89 -773.23 829.54 -712.74 807.1 -651.1 784.39 -576.21 811.34 -540.68 875.37 -580.03 935.7 -620.18 1004.41 -661.56 1074.27 -697.33 1135.21 -722.69 1180.72 -732.47 1203.74 -724.88 1201.83 -700.38 1176.22 -660.89 1133.04 -610.5 1085.54 -553.61 1044.88 -495.91 1024.55 -442.41 1034.76 -396.93 1077.43 -362.95 1147.98 -341.93 1231.91 -334.41 1312.46 -339.03 1370.57 -353.33 1392.15 -375.46 1373.42 -400.95 1321.51 -426.24 1229.7 -457.94 1238.82 -471.01 1365.63 -447.18 1454.3 -419.47 1510.71 -384.35 1515.72 -343.7 1470.75 -298.65 1395.49 -251.71 1323.7 -204.72 1290.74 -158.33 1314.61 -114.77 1391.52 -74.98 1492.45 -39 1577.61 -7.9 1611.24 18.37 1580.82 40.03 1502.56 57.29 1416.42 70.82 1369.16 80.61 1387.53 87.84 1468 93.31 1614.18 97.87 1567.39 105.13 1438.45 110.49 1420.03 114.4 1477.64 119.98 1582.99 127.34 1678.53 134.95 1711.44 144.41 1663 155.69 1517.84 173.88 1557.49 218.71 1704.21 244.89 1724.98 262.85 1660.2 282.12 1549.98 302.65Q1549.98 302.65 1549.98 302.65" opacity="0.59"></path><path d="M1479.98 497.73C1398.38 517.05 1385.29 537.34 1446.57 558.51 1547.82 579.63 1631.4 601.54 1651.43 624.1 1597.27 646.46 1497.45 669.25 1404.39 692.26 1365.26 714.78 1398.1 737.16 1482.8 759.09 1574.84 780.1 1624.89 800.17 1607.21 818.89 1529.42 836.17 1427.92 851.55 1349.23 864.64 1327.39 875.8 1368.93 884.23 1450.32 889.66 1532.49 893.05 1574.75 893.43 1557.06 890.83 1485.29 886.88 1388.15 880.66 1303.76 872.72 1262.88 865.17 1278.02 857.45 1337.82 850.6 1446.66 846.37 1428.25 865.54 1300.11 894.16 1218.64 921.99 1171.54 956.24 1169.08 996.41 1207.92 1040.76 1270.28 1088.37 1332.64 1137.3 1374.6 1184.65 1379.98 1228.75 1346.11 1267.11 1280.08 1297.33 1198 1317.98 1118.78 1327.73 1057.95 1326.79 1027.33 1315.28 1028.94 1294.55 1058.83 1268.18 1105.16 1238.26 1154.06 1208.54 1204.33 1175.7 1152.28 1181.03 1061.7 1227.73 991.32 1274.31 925.54 1328.33 871.27 1384.99 832.15 1438.51 811.06 1483.87 806.64 1516.23 817.21 1532.41 837.56 1530.85 862.52 1512.09 889.74 1479.98 912.82 1438.68 928.71 1394.52 936.34 1341.33 889.82 1335.93 842.31 1393.23 803.59 1448.52 762.58 1507.94 721.07 1563.11 678.17 1606.05 636.94 1630.44 598.16 1632.5 559.99 1612.68 524.88 1573.9 492.82 1522.74 461.75 1468.96 433.43 1421.23 407.51 1388.34 382.22 1377.15 358.81 1389.64 336.96 1424.31 315.29 1475.69 294.84 1534.75 275.51 1590.97 256.18 1634.29 238.2 1656.3 221.69 1653.36 205.36 1626.52 190.85 1580.23 178.49 1522.69 166.76 1463.68 157.7 1412.9 151.69 1378.33 146.68 1365.3 145.01 1374.88 146.73 1404.4 149.06 1448.95 154.15 1499.77 161.26 1548.03 169.77 1597.01 171.3 1568.57 153.81 1497.25 130.98 1438.83 98.8 1381.54 56.81 1332.38 7.42 1296.85 -48.73 1278.49 -108.59 1278.07 -166.2 1294.77 -218.75 1324.4 -261.05 1361.7 -288.38 1401.84 -298.57 1437.84 -290.23 1464.55 -266.75 1478.9 -231.28 1477.76 -190.68 1460.91 -155.77 1429.71 -133.31 1386.75 -131.38 1336.01 -154.71 1281.37 -202.75 1227.71 -270.77 1179.08 -347.32 1138.43 -420.75 1108.42 -477.17 1090.04 -505.29 1083.64 -500.61 1087.94 -465.12 1100.85 -411.24 1120.93 -353.89 1144.38 -311.95 1168.23 -302.19 1190.99 -331.05 1209.04 -395.83 1220.57 -481.02 1225.19 -565.55 1221.25 -625.89 1208.86 -644.94 1188.58 -618.66 1161.02 -557.31 1127.55 -486.11 1089.04 -431.93 1047.4 -418.95 1004.24 -457 960.06 -536.46 916.95 -631.81 875.96 -708.85 837.09 -740.49 801.74 -715.34 770.18 -646.67 742.14 -564.49 718.04 -506.89 697.55 -503.37 680.48 -559.01 666.38 -653.74 654.63 -725.44 632.11 -582.98 606.28 -711.68 596.23 -803.84 589.36 -843.25 581.07 -809.79 571.28 -674.86 555.8 -644.08 516.81 -790.5 493.31 -853.72 477.11 -841.61 459.34 -760.01 440.01 -655.67 420.68 -587.61 400.02 -592.93 378.05 -667.99 356.06 -769.46 332.74 -840.91 308.11 -843.84 283.44 -775.86 257.44 -673.07 230.16 -588.14 202.88 -563.61 174.39 -608.96 144.81 -699.2 115.44 -785.45 85.24 -823.15 54.49 -792.92 24.42 -707.84 -5.66 -607.49 -35.33 -536.48 -63.49 -525.05 -90.43 -573.96 -115.53 -696.92 -148 -706.13 -191.85 -571.03 -200.94 -489.96 -202.03 -454.44 -198.88 -473.47 -191.75 -535.87 -182.5 -612.4 -170.66 -670.67 -157.28 -687.49 -144.91 -653.66 -133.57 -579.88 -124.84 -488.47 -121.16 -408.09 -122.88 -361.02 -131.35 -357.84 -147.7 -394.56 -171.97 -454.56 -204.24 -517.44 -243.44 -559.92 -288.58 -568.02 -337.86 -537.93 -388.22 -475.68 -437.62 -396.11 -483.04 -315.49 -521.29 -251.55 -550.31 -215.01 -568.03 -209.94 -573.76 -232.87 -567.23 -274 -549.4 -322.99 -523.6 -365.24 -492.11 -390.67 -458.98 -394.16 -429.73 -372.79 -407.6 -329.95 -396.52 -270.52 -399.79 -203.31 -418.08 -136.68 -451.13 -76.16 -496.54 -28.7 -550.53 3.15 -607.91 18.87 -662.45 19.73 -708.58 9.27 -741.01 -10.5 -756.33 -33.7 -752.94 -56.21 -731.59 -77.1 -696.59 -91.49 -652.69 -98.03 -606.82 -97.47 -567.44 -88.3 -540.43 -71.58 -531.11 -48.3 -542.56 -19.68 -573.83 12.5 -621.42 48.33 -678.87 85.28 -738.04 122.08 -790.05 160.04 -827.04 196.42 -843.2 230.69 -835.85 264.93 -806.95 296.64 -760.93 325.75 -705.76 354.62 -652.03 380.99 -608.63 404.93 -583.71 428.77 -582.7 450.36 -605.67 469.69 -648.98 489.02 -705.2 505.86 -763.28 520.2 -812.73 534.44 -845.48 546 -855.09 554.77 -840.09 563.32 -803.38 568.98 -750.9 571.81 -691.46 573.79 -588.27 579.31 -676.97 594.51 -746.03 612.86 -778.96 638.39 -794.14 672.14 -789.08 712.99 -764.33 761.29 -722.64 815.68 -669.45 871.69 -611.12 927.97 -554.85 980.39 -507.02 1039.17 -463.49 1062.65 -482.19 1024.82 -530.68 988.98 -568.63 952.07 -603.22 922.44 -629.69 909.39 -645.19 917.3 -646.52 949.53 -633.19 1003.72 -606.13 1074.18 -567.27 1150.83 -519.95 1219.61 -467.4 1269.65 -414.01 1291.09 -363.53 1281.08 -318.7 1243.07 -282.45 1187.79 -256.17 1114.8 -237.94 1155.23 -259.32 1273.92 -287.51 1382.39 -338.09 1216.69 -341.9 1245.02 -312.28 1322 -284.78 1416.51 -252.65 1496.16 -217.11 1532.43 -178.52 1513.41 -138.6 1448.07 -98.41 1366.88 -57.83 1305.46 -18.52 1294.2 18.92 1342.5 55.01 1433.3 88.56 1530.11 119.47 1591.58 148.35 1591.89 174.62 1531.79 198.54 1442.34 220.52 1367.34 240.57 1346.31 259.09 1393.22 276.15 1487.82 292.21 1585.52 307.66 1638.33 322.19 1620.37 336.58 1541.11 351.13 1443.98 365.21 1380.76 379.78 1387.52 395.08 1462.78 410.17 1567.14 426.19 1644.15 443.24 1651.4 460.25 1584.32 478.4 1479.98 497.73Q1479.98 497.73 1479.98 497.73" opacity="0.76"></path><path d="M1410.03 500.31C1331.81 518.43 1312.45 535.45 1360.3 551.37 1495.71 574.59 1519.73 614.63 1383.17 631.05 1311.37 641.26 1296.47 649.91 1342.49 656.93 1485.41 671.55 1272.27 680.53 1271.21 681.43 1335.08 683.32 1415.71 685.88 1479.07 689.72 1499.83 696.14 1467.79 704.89 1394.01 716.61 1302.96 732.04 1225.4 751.26 1185.09 774.67 1192.28 802.13 1240.32 833.79 1308.96 869.46 1374.03 907.98 1410.85 949.22 1406.55 992.21 1360.94 1034.97 1285.98 1076.91 1201.89 1116.45 1129.01 1151.57 1085.11 1181.37 1077.6 1204.37 1104.96 1219.69 1155.47 1226.67 1212.57 1224.99 1261.12 1215.85 1285.83 1199.53 1279.99 1177.54 1243.7 1153.12 1183.47 1127.65 1110.87 1103.95 1037.28 1085.81 975.79 1074.79 934.53 1073.2 917.33 1082.9 923.78 1104 948.62 1136.2 986.22 1177.76 1026.43 1226.32 1061.03 1278.51 1085.22 1329.95 1092.93 1376.87 1082.98 1415.17 1056.16 1441.53 1015.07 1453.74 964.26 1450.76 906.84 1433.97 848.92 1405.13 794.64 1367.93 745.59 1328.27 705.5 1290.63 675.07 1260.48 654.01 1243.23 642.01 1241.39 637.29 1256.54 639.41 1288.08 645.46 1332.89 653.36 1386.21 663.73 1441.72 673.07 1492.81 680.24 1532.97 686.88 1557.18 690.12 1562.24 689.82 1547.45 687.99 1515.74 682.69 1471.25 674.32 1420.68 664.66 1372.65 652.57 1333.92 638.54 1310.94 623.85 1308.25 607.85 1326.28 590.92 1362.87 573.81 1412.83 556.12 1468.44 538 1520.96 519.88 1562.12 501.53 1584.81 482.85 1585.71 463.99 1565.22 444.44 1526.24 423.84 1474.9 402.56 1418.96 379.62 1366.53 354.52 1325.01 328.12 1300.11 298.94 1294.63 266.6 1308.44 232.73 1339.37 195.61 1381.66 155.42 1428.59 114.7 1473.92 72.14 1510.08 28.9 1531.89 -11.88 1536.65 -50.46 1522.86 -84.74 1492.17 -112.19 1448.1 -131.98 1395.65 -142.33 1340.76 -143.3 1289.09 -134.23 1246.07 -115.78 1215.58 -92.1 1200.07 -64.37 1199.91 -36.71 1213.64 -15.65 1239.24 -3.88 1272.06 -5.93 1307.5 -24.84 1341.96 -60.95 1370.17 -113.08 1388.76 -175.61 1396.07 -243.27 1390.22 -307.82 1371.51 -359.62 1341.23 -392.52 1301.47 -401.25 1255.27 -385.92 1205.35 -349.83 1155.43 -301.1 1108.56 -253.36 1066.9 -217.45 1032.86 -204.91 1007.56 -222.83 991.6 -270.72 984.74 -341.86 985.96 -421.57 994.71 -494.08 1008.61 -542.84 1025.65 -556.73 1045.07 -533.62 1063.85 -480.9 1080.29 -389.25 1098.62 -376.87 1100.77 -487 1083.1 -573.17 1064.14 -638.08 1040.34 -661.43 1012.59 -637.29 981.23 -575.2 947.47 -498.89 912.26 -439.86 875.52 -421.84 838.73 -455.89 802.54 -532.52 766.48 -625.7 731.89 -701.35 699.04 -731.01 667.25 -704.13 637.5 -632.41 609.75 -548.34 583.32 -488.28 558.77 -480.92 535.9 -532.52 514.19 -623.1 493.82 -714.83 474.53 -767.85 456.06 -759.11 438.3 -692.62 420.99 -600.73 404.17 -526.47 387.49 -506.68 370.76 -552.81 354.25 -643.94 337.47 -736.96 320.31 -786.62 303.21 -768.18 285.62 -689.96 267.5 -591.64 249.37 -522.45 230.94 -515.79 212.25 -574.34 193.61 -667.82 174.83 -750 156.05 -781.78 137.48 -747.15 119.12 -662.62 101.19 -566.62 83.74 -502.31 67.02 -496.66 51.31 -550.31 36.43 -636.35 22.92 -714.67 11.08 -750.62 0.4 -726.81 -8.26 -652.9 -14.72 -510.99 -21.08 -684.39 -7.2 -658.11 1.82 -582.91 6.43 -492.54 10 -416.3 11.6 -376.84 9.6 -384.03 4.09 -430.77 -5.81 -499.29 -20.96 -563.2 -41.44 -600.19 -67.56 -597.81 -98.92 -554.48 -135.34 -481.89 -176.14 -397.81 -219.53 -323.91 -264.76 -276.63 -310.11 -264.47 -353.07 -286.53 -392.38 -332.63 -426 -414.38 -460.82 -454.95 -470.37 -386.63 -445.89 -316.66 -421.62 -243.35 -393.71 -178.22 -365.19 -116 -330.9 -131.43 -319.56 -183.92 -352.56 -221.38 -390.02 -250.45 -436.44 -266.38 -488.44 -267.46 -541.41 -251.94 -591.11 -221.77 -632.87 -179.04 -662.77 -128.18 -678.08 -73.63 -677.32 -17.48 -661.58 35.11 -632.59 81.71 -594.21 121.95 -552.6 153.65 -512.69 177.12 -480.39 192.97 -461.47 202.11 -458.69 206.27 -473.67 205.49 -505.7 202.44 -551.3 198.67 -605.26 193.09 -660.82 188.75 -710.94 186.44 -748.87 184.17 -769.67 184.68 -770.36 188.1 -750.79 192.1 -714.58 198.96 -666.62 208.47 -614.26 224.54 -548.37 267.7 -526.05 293.99 -578.99 312.11 -631.51 331.79 -686.2 353.09 -734.36 374.52 -769.14 397.82 -784.47 423.17 -778.21 448.96 -751.65 477.15 -708.47 507.9 -655.12 539.24 -599.24 573.21 -548.59 609.66 -509.87 646.14 -488.08 684.36 -485.31 723.49 -500.89 760.8 -532.41 797.08 -574.05 830.74 -619.34 889.53 -695.77 873.13 -605.22 836.79 -524.98 812.84 -473.04 792.17 -428.72 779.19 -395.76 778.78 -376.62 792.58 -371.96 822.53 -380.77 867.32 -401.53 924.79 -430.24 990.19 -462.81 1055.14 -496.13 1113.52 -525.17 1157.44 -546.58 1180.65 -558.63 1180.58 -558.94 1157.56 -547.25 1118.36 -524.26 1070.45 -491.23 1025.34 -450.49 996.43 -404.2 991.66 -355.55 1016.62 -307.38 1069.43 -261.63 1142.31 -221 1221.81 -186.99 1301.96 -140.68 1136.56 -159.81 1141.14 -181.88 1197 -196.94 1279.13 -209.78 1365.19 -219.43 1429.47 -226.24 1453.52 -228.58 1430.22 -226.29 1370.15 -219.95 1295.24 -208.98 1234.78 -193.81 1214.87 -174.93 1245.67 -152.66 1320.03 -127.69 1412.5 -100.12 1490.61 -70.88 1525.27 -40.61 1504.36 -8.98 1437.25 22.81 1352.67 54.33 1288.99 86.29 1274.62 117.43 1319.2 147.53 1406.16 177.53 1500.02 206.28 1560.66 233.71 1562 260.86 1503.86 286.69 1413.17 311.24 1333.95 335.54 1303.78 358.66 1339.15 380.66 1424.91 402.52 1521.1 423.39 1581.47 443.31 1576.62 463.18 1508.35 482.18 1410.03 500.31Q1410.03 500.31 1410.03 500.31" opacity="0.10"></path><path d="M1341.79 304.98C1266.53 321.9 1240.79 337.75 1274.67 352.57 1353.29 367.42 1441.53 381.32 1501.51 394.36 1458.88 420.87 1285.9 444.92 1228.34 468.03 1357.69 493.85 1478.77 521.6 1417.94 553.8 1248.32 592.15 1179.95 638.22 1279.31 693.62 1407.65 755.61 1393.53 825.26 1245.91 899.3 1115.86 969.73 1126.89 1033.41 1240.84 1082.47 1326.79 1111.14 1283.97 1116.14 1145.02 1096.96 1001.62 1042.99 1167.98 990.99 1131.27 1061.09 1011.65 1146.52 888.4 1241.93 811.77 1323.39 799.96 1368.6 839 1365.95 893.33 1318.03 938.39 1249.21 946.22 1187.44 915.43 1164.17 852.36 1197.6 771.69 1279.85 689.05 1382.36 606.76 1463.95 537.55 1490.65 481.83 1450.5 433.96 1366.63 395.27 1279.72 361.2 1236.59 345.09 1241.46 329.19 1263.99 313.15 1301.65 297.26 1349.76 280.92 1401.81 264.01 1450.63 247.09 1489.54 229.81 1512.6 212.29 1516.87 194.92 1502.27 177.64 1470.52 160.8 1426.04 98.94 1297.01 137.78 1449.9 152.52 1358.32 124.68 1257.31 59.69 1169.82 -40.91 1122.81 -150.77 1126.92 -243.74 1171.48 -284.06 1232.44 -259.57 1286.83 -186.67 1309.18 -115.45 1290.51 -109.51 1233.83 -191.22 1151.28 -331 1061.34 -442.78 978.84 -456.7 918.25 -367.39 884.29 -268.39 877.22 -263.23 889.89 -384.41 912.47 -533.58 940.36 -577.38 961.22 -477.51 969.87 -360.06 967.04 -373.51 948.82 -526.64 917.83 -650.8 876.52 -604.46 827.9 -453.92 775.93 -412.19 720.17 -549.42 665.47 -691.82 613.8 -647.32 561.78 -484.3 514 -448.36 470.87 -511.69 449.37 -602.46 429 -682.77 409.78 -718.34 390.58 -693.46 372.51 -618.2 355.6 -491.85 330.91 -525.72 288.32 -652.02 270.47 -630.4 239.13 -560.69 202.68 -664.88 193.08 -520.92 183.67 -383.87 172.22 -410.47 154.91 -550.32 127.28 -615.78 88.34 -521.32 35.63 -360.56 -28.54 -293.37 -103.32 -364.6 -183.35 -483.49 -258.07 -514.08 -321.1 -419.98 -362.43 -270.65 -376.88 -177.7 -362.75 -189.96 -324.59 -278.04 -278.98 -356.16 -238.65 -361.28 -221.91 -282.98 -243.18 -159.27 -303.18 -47.19 -392.78 -36.07 -540.74 -60.51 -391.86 37.07 -443.7 117.32 -539.3 193.36 -637.94 259.88 -696.29 322.51 -689.18 374.49 -620 418.21 -523.85 439.28 -482.71 458.99 -453.48 477.6 -440.56 496.06 -446.51 513.7 -470.42 530.62 -509.32 547.53 -558.15 563.51 -609.33 578.46 -655.76 593.25 -691.73 606.73 -711.74 618.6 -713.27 640.78 -663.46 653.72 -566.6 654.88 -469.67 652.16 -416.46 638.78 -426.99 619.91 -489.49 611.33 -572.9 616.14 -633.14 648.16 -641.79 712.29 -593.73 806.85 -504.4 917.06 -405.4 1035.13 -309.58 952.02 -376.95 885.44 -451.31 938.97 -470.05 1063.53 -450.69 1195.95 -397.24 1252.55 -319.07 1201.81 -231.68 1092.43 -149.77 1038.28 -82.19 1106.54 -36.84 1260.64 -13.36 1367.1 -10.28 1332.68 -20.04 1202.1 -34.92 1184.33 -59.66 1389.37 -59.05 1206.99 -29.03 1253.19 0.13 1423.5 35.04 1495.35 73.02 1375.3 113.71 1240.31 154.58 1297.84 193.96 1386.47 213.87 1471.05 233.16 1515.76 251.71 1501.54 270.29 1433.88 288.07 1341.79 304.98Q1341.79 304.98 1341.79 304.98" opacity="0.39"></path><path d="M1270.03 296.78C1171.03 328.19 1260.49 362.59 1411.69 400.09 1422.5 438.03 1275.48 479.86 1156.06 525.95 1205.53 573.09 1350.76 624.83 1407.08 680.65 1302.71 736.07 1149.79 793.2 1106.67 849.19 1204.95 899 1323.27 941.62 1330.09 972.67 1210.49 990.37 1068.79 992.41 1019.02 978.4 1086.71 955.3 1194.03 925.03 1240.25 895.88 1182.23 880.62 1053.74 884.35 934.78 914.05 885.44 970.36 918.69 1047.87 993.45 1135.11 1060.53 1214.3 1071.95 1270.47 1021.1 1290.06 923.88 1271.39 815.54 1220.73 726.4 1156.21 670.1 1105.74 652.54 1088.48 661.89 1117.75 690.46 1189.85 718.92 1284.06 736.95 1369.33 746.73 1415.73 740 1406.43 720.24 1345.36 692.47 1261.79 658.27 1190.75 622.36 1166.39 584.45 1203.79 548.93 1287.55 517.52 1380.96 486.11 1441.17 459.55 1438.83 436.27 1376.53 411 1282.55 384.92 1196.74 353.45 1153.21 313.98 1167.46 262.51 1228.04 195.75 1305.62 120.73 1369.03 36.48 1388.8 -46.52 1356.74 -110.3 1282.72 -145.82 1189.68 -141.1 1105.4 -103.54 1051.38 -45.27 1038.5 3.53 1062.48 5.97 1112.47 -52.2 1166.19 -164.22 1205 -283.92 1218.69 -360.31 1199.04 -352.13 1149.96 -274.35 1078.98 -185.06 998.51 -164.13 920.6 -247.44 852.45 -389.74 801.84 -490.14 769.82 -417.44 755.82 -377.02 783.86 -570.29 797.83 -483.96 800.81 -485.24 760.24 -626.95 722.01 -519.65 692.5 -381.88 660.75 -398.9 628.26 -556.32 595.13 -648.96 562.54 -549.96 531.13 -395.75 499.72 -396.54 470.23 -544.82 442.18 -640.95 413.48 -554.75 384.95 -395.66 355.22 -356.09 322.99 -473.46 287.25 -593.43 246.31 -568.61 200.84 -419.46 148.61 -304.18 89.42 -332.96 27.39 -457.74 -38.42 -535.8 -104.29 -481.88 -163.37 -337.66 -213.19 -224.53 -247.74 -224.09 -264.14 -316.8 -260.28 -408.48 -237.08 -419.92 -204.12 -331.85 -166.78 -200.55 -136.96 -96.74 -129.05 -70.76 -148.59 -114.84 -199.37 -192.55 -275.26 -247.08 -363.95 -247.63 -446.66 -190.86 -503.36 -95.5 -520.92 7.14 -494.93 97.28 -438.66 154.8 -371.22 180.08 -320.22 177.39 -311.18 160.17 -351.39 141.33 -432.51 116.58 -565.62 135.19 -560.12 170.95 -434.08 199.03 -377.98 229.6 -378.8 261.01 -438.99 292.43 -532.4 323.93 -612.99 357.03 -644.19 392.23 -613.64 432.96 -533.36 482.62 -437.66 538.17 -364.46 605.23 -340.15 682.54 -368.81 758.36 -436.35 831.37 -510.11 888.5 -559.2 917.65 -565.45 913.21 -522.61 874.65 -444.12 823.58 -351.59 778.29 -270.48 769.92 -219.09 818.89 -205.97 920.17 -227.15 1042.83 -269.25 1140.43 -338.55 971.8 -341.69 995.9 -261.8 1124.67 -187.71 1252.36 -110.69 1284.62 -39.17 1204.2 23.25 1090.42 71.28 1064.52 105.16 1245.78 130.92 1216.17 138.56 1144.73 139.45 1282.42 140.62 1414.8 147.07 1387.35 159.17 1240.39 172.31 1163.43 190.77 1265.77 214.01 1420.27 237.69 1424.24 265.37 1270.03 296.78Q1270.03 296.78 1270.03 296.78" opacity="0.99"></path><path d="M1200.03 491.51C1101.98 520.51 1166.58 552.52 1312.47 587.04 1370.35 621.14 1271.4 656.88 1125.17 693.03 1084.66 727.26 1183.66 759.85 1307.43 788.76 1268.73 822.04 1065.9 840.82 1217.03 823.87 1264.65 807.88 1197.47 789.38 1065.09 773.35 956.21 768.06 938.06 775.42 1003.56 800.3 1098.06 844.34 1146.87 905.98 1116.7 980.49 1018.98 1057.37 900.72 1127.58 811.31 1179.11 777.34 1203.31 799.83 1196.29 852.86 1160.21 911.83 1108.76 944.39 1054.91 939.38 1017.13 898 1012.56 829.39 1046 749.75 1113.92 666.06 1200.08 593.31 1281.85 535.51 1334.91 489.83 1343.91 457.62 1306.02 433.7 1234.64 416.54 1159.07 400.72 1106.4 382.43 1099.37 365.5 1144.26 343.12 1224.94 314.13 1310.96 285.13 1368.52 250.21 1373.33 210.67 1324.89 172.48 1242.46 132.65 1156.02 95.13 1095.69 64.37 1080.9 42.86 1112.55 35.93 1175.08 41.13 1246.63 62.38 1298.48 95.83 1312.78 125.22 1284.93 144.83 1220.64 138.6 1137.4 96.01 1054.49 17.22 990.97 -86.42 957.56 -184.15 957.72 -249.79 984.77 -257.31 1026.45 -170.16 1090 -121.55 1097.88 -292.79 1030.88 -392.53 966.11 -406.67 896.01 -327.97 827.7 -225.79 764.07 -186.7 710.79 -260.18 668.85 -448.99 627.07 -309.92 592.42 -297.02 584.81 -493.58 578.78 -340.44 548.14 -358.85 521.15 -510.48 501.4 -578.01 477.03 -479.96 448.04 -333.92 419.05 -312.96 386.11 -435.94 349.38 -558.59 312.51 -537.15 271.65 -395.79 227.05 -283.77 182.51 -312.93 134.84 -439.96 85.25 -528.94 37.8 -482.83 -8.77 -343.62 -51.71 -236.08 -101.59 -441.84 -134.07 -344.92 -111.6 -169.24 -74.5 -261.99 -32.13 -332.33 -66.04 -284.36 -118.57 -180.24 -189.43 -67.36 -269.88 -15.43 -395.03 -97.72 -262.11 -21.55 -235.17 53.98 -270.72 131.43 -341.44 201.94 -429.35 266.97 -508.25 319.23 -553.75 360.72 -550.16 395.73 -501.04 424.79 -423.14 451.59 -346.43 476.58 -303.72 502.88 -311.45 531.87 -368.99 560.87 -455.01 591.87 -532.76 623.36 -571.93 653.03 -559.18 679.62 -497.99 699.3 -411.23 691.92 -320.23 630.94 -485.6 685.08 -460.08 762.36 -396.45 861.31 -314.5 959.7 -232.85 1026.24 -166.59 1042.47 -127.28 1001.26 -117.23 929.86 -134.53 865.56 -168.54 855.59 -207.42 921.78 -243.93 1042.28 -265.76 1157.96 -268.31 1202.3 -251.71 1152.69 -215.91 1048.14 -165.93 979.75 -105.22 1011.18 -40.5 1136.42 23.09 1263.5 84.76 1294.14 139.53 1204.35 186.57 1086.39 227.3 1059.16 260.92 1164.5 289.19 1307.89 312.88 1350.89 334.01 1250.07 354.45 1119.89 372.99 1106.99 392.9 1235.37 415.27 1364.09 437.23 1346.07 462.52 1200.03 491.51Q1200.03 491.51 1200.03 491.51" opacity="0.57"></path><path d="M1129.98 505.99C1034.21 532.57 1075.35 556.09 1207.03 576.37 1151.48 621.25 1246.63 642.18 1148.66 635.84 983.62 633.62 1126.24 661.93 1173.71 707.49 1093.45 753.33 972.32 810.29 874.71 875.71 842.93 942.82 881.45 1007.34 955.52 1061.65 1024.44 1098.62 1046.61 1113.97 1011.98 1105.04 930.77 1076.61 830.83 1033.18 741.06 985.16 678 948 652.52 930.56 658.16 941.84 687.81 984.29 723.79 1051.68 753.48 1131.46 777.04 1231.39 724.71 1221.77 668.21 1122.79 624.3 1061.13 581.72 1027.68 543.27 1035.79 504.11 1085.82 470.81 1162.39 444.23 1240.97 417.65 1295.5 398.42 1306.3 385.81 1271.02 372.49 1201.94 364.07 1120.29 357.85 1050.59 346.9 1012.25 332.31 1013.58 308.71 1050.26 272.8 1110.78 221.75 1173.51 154.06 1219.48 78.31 1237.26 -2.59 1219.34 -75.88 1170.05 -125.15 1099.32 -142.04 1021.61 -119.95 951.31 -40.95 884.8 -0.32 902.4 -133.4 954.01 -278.16 999.54 -201.61 997.09 -103.26 946.21 -136.48 896.98 -246.1 841.65 -370.26 784.53 -427.81 726.2 -382.24 671.47 -270.3 621.89 -189.32 575.94 -211.63 535.89 -331.75 501 -454.99 469.66 -479.68 441.84 -384.14 416.2 -261.08 392.37 -228.24 369 -325.01 345.13 -461.95 321.71 -505.78 296.89 -410.01 270.31 -273.12 243.74 -234 216.03 -327 187.68 -458.22 159.78 -495.7 132.13 -404.37 105.85 -235.44 70.65 -418.85 26.14 -415.71 22.45 -234.24 30.88 -255.89 70.44 -369.04 85.18 -348.66 82.59 -252.37 68.06 -133.73 38.37 -48.4 -6.74 -32.26 -65.84 -77.26 -134.9 -153.58 -205.37 -213.73 -270.51 -228.25 -320.82 -189.98 -348.85 -110.04 -350.55 -14.6 -325.67 76.08 -283.05 139.84 -231.1 171.45 -184.07 172.5 -158.48 153.05 -162.21 126.14 -199.47 95.36 -264.91 74.43 -344.94 66.73 -420.47 68.34 -472.15 82.71 -486.19 105.9 -458.11 134.92 -398.68 167.25 -324.86 199.5 -261.03 233.1 -230.99 263.81 -244.47 290.38 -298.98 316.96 -377.56 338.78 -451.45 356.96 -496.23 376.48 -499.1 395.15 -457.83 416.26 -385.92 443.2 -304.47 478.06 -236.19 524.67 -198.15 580.59 -198.56 648.72 -232.83 725.57 -287.49 798.54 -347.78 862.9 -393.52 905.49 -412.27 917.53 -399.84 896.14 -356.65 846.41 -291.82 791.93 -216.12 751.55 -143.1 751.31 -83.28 803.86 -42.96 900.51 -25.14 1011.67 -27.27 1091.5 -46.74 1108.53 -74.77 1054.59 -103.85 967.34 -131.24 900.64 -148.64 907.94 -153.52 998.07 -146.85 1125.2 -127.01 1211.68 -96.47 1201.95 -57 1106.87 -11.64 1003.25 36.41 983.58 87.45 1072.93 137.37 1208.98 184.62 1281.71 231.49 1231.61 274.6 1104.34 313.84 1023.26 352.17 1068.56 387.09 1205.04 418.92 1303.3 450.41 1266.87 479.41 1129.98 505.99Q1129.98 505.99 1129.98 505.99" opacity="0.49"></path><path d="M1061.31 311.45C968.15 335.61 986.68 356.6 1096.84 374.69 1206.61 393.06 1223.18 409.09 1134.5 423.53 1008.08 439.23 937.38 454.7 967.24 471.23 1070.09 490.89 1164.32 513.7 1181.6 541.17 1108.54 573.7 989.39 612.39 894.1 657.72 871.33 707.37 924.48 761.93 1012.02 819.2 1082.83 874.29 1092.37 925.67 1035.59 968.82 934.97 999.63 832.53 1015.63 763.89 1014.5 746.1 998.69 775.84 969.12 830.97 930.74 909.01 878.45 868.64 869.71 765.36 937.29 686.08 1004.62 615.52 1076.82 559.49 1140.92 517.48 1184.57 491.22 1199.18 476.19 1181.19 470.91 1136.94 469.34 1075.82 467.1 1013.75 467.41 969.69 463.08 954.74 452.6 975.25 442.3 1028.06 425.23 1099.6 401.07 1170.72 376.9 1221.86 346.22 1237.45 309.46 1214.23 272.87 1159.44 230.84 1086.99 184.95 1015.34 141.63 961.3 98.44 936.19 59.88 943.07 31.07 979.06 14.41 1031.77 14.55 1086.82 28.71 1132.93 58.44 1156.88 98.04 1153.61 131.85 1123.89 152.92 1071.89 147.36 1006.68 107.4 937 34.68 873.21 -59.54 822.5 -180.71 781.45 -152.93 803.48 -44.7 841.23 -16.45 867.45 -52.89 886.93 -148.87 897.21 -261.56 899.25 -338.13 890.41 -336.9 872 -263.17 845.68 -163.71 812.74 -108.36 775.64 -143.36 734.55 -253.31 692.47 -369.8 651.11 -413.29 608.76 -354.13 568.66 -237.04 531.48 -157.69 494.4 -181.36 460.48 -295.91 429.85 -410.85 399.33 -431.83 371.93 -338.67 347.77 -212.1 323.6 -160.09 303.25 -222.44 286.71 -345.6 270.27 -424.65 257.82 -396.54 249.33 -225.22 238.61 -248.34 231.9 -374.12 230.7 -360.76 225.92 -266.76 218.04 -149.11 204.68 -71.11 183.41 -70.44 153.74 -134.73 114.46 -223.23 66.94 -280.06 11.49 -274.83 -49.28 -207.74 -109.7 -106.1 -166.71 -8.95 -214.46 54.81 -247.61 68.82 -262.86 40.75 -257.79 -14.56 -235.61 -69.37 -198.73 -103.99 -154.21 -110.7 -114.16 -84.29 -85.57 -32.84 -77.4 36.75 -95.68 110.8 -139.32 179.66 -203.14 242.06 -275.91 290.72 -344.34 326.69 -393.97 352.7 -414.48 370.51 -400.91 384.37 -356.2 393.88 -293.87 404.31 -228.53 418.11 -178.53 431.1 -160.08 449.29 -178.12 473.45 -229.26 497.61 -300.38 527.18 -369.47 561.25 -417.51 594.51 -433.23 630.46 -411.17 666.52 -357.78 698.23 -286.39 725.18 -213.74 743.01 -155.85 750.87 -124.22 745.12 -123.1 724.6 -149.04 697.61 -195.43 664.4 -247.95 634.47 -293.72 622.69 -324.59 634.8 -331.48 678.74 -313.18 750.6 -272.51 841.38 -215.13 931.27 -149.56 993.91 -82.65 1013.09 -22.91 980.98 24.56 879.76 65.95 870.62 62.01 1026.15 36.45 1115.6 16.42 1138.34 0.38 1081.9 -9.59 985.8 -15.25 911.49 -13.1 915.84 -3.76 1005.58 10.63 1128.8 30.74 1205.01 54.91 1182.86 82.22 1079.6 111.51 974.99 141.38 956.21 172.51 1042.37 202.85 1170.31 231.55 1237.44 260.52 1187.88 287.29 1061.31 311.45Q1061.31 311.45 1061.31 311.45" opacity="0.22"></path><path d="M990.03 291.3C902.48 313.04 903.75 336.69 989.21 362.25 1100.04 388.05 1158.56 416.21 1127.18 446.95 1025.86 478.39 916.88 512.88 863 550.48 891.08 588.77 977.64 629.89 1067.44 673.16 1110.13 715.56 1078.86 758.2 990.08 799.22 883.64 835.66 807.16 867.01 787.52 890.81 826.25 905.88 897.71 910.74 966.13 904.45 1004.55 889.77 993.98 866.33 939.07 836.95 854.57 808.42 765.5 782.71 692.92 765.18 648.17 761.96 636.81 774.57 652.2 804.8 687.76 851.15 728.01 909.75 761.87 974.16 786.58 1035.43 793.68 1085.65 784.04 1116.68 760.41 1124.17 725.47 1106.45 684.5 1066.54 637.71 1014.36 591.31 958.81 548.15 912.2 504.4 887.02 465.81 888.48 432.88 918.24 400.19 971.59 372.92 1037.3 351.17 1100.96 329.43 1148.37 313.72 1167.5 304.06 1154.95 294.63 1114.51 291.48 1054.41 294.22 987.42 299.43 904.63 309.49 883.02 293.59 939.68 265.55 989.26 221.7 1033.81 161.28 1065.03 91.72 1078.99 16.8 1071.41 -52.26 1043.74 -101.16 999.44 -122.18 943.92 -108.54 883.85 -67.08 824.05 -7.87 770.82 48.13 727.71 74.53 696.31 57.96 677.51 -6.13 669.83 -100.23 672.74 -195.91 682.32 -257.28 695.35 -260.28 711.95 -204.87 727.05 -117.83 738.65 -48.44 748.48 -34.9 752.76 -93.53 751.38 -249.63 741.74 -249.44 696.2 -107.21 665.05 -84.22 642.47 -149.14 619.22 -264.27 596.06 -354.04 572.6 -357.51 549.83 -269.96 528.08 -154.03 506.34 -91.12 486.13 -121.7 467.23 -223.26 448.03 -323.5 429.54 -355.81 411.11 -299.97 391.49 -189.84 370.76 -91.19 347.96 -57.84 322.66 -103.08 293.93 -193.3 260.95 -276.58 224.64 -302.65 183.62 -258.06 138.08 -162.6 90.77 -59.78 41.01 8.65 -9.1 20.37 -55.64 -21.33 -97.6 -90.25 -131.62 -157.63 -155.06 -191.59 -166.12 -180.21 -163.23 -126.22 -148.63 -45.21 -122.54 40.86 -88.42 140.6 -38.37 163.14 -2.77 116.98 -42.86 81.38 -93.47 55.42 -155.74 42.8 -221.27 41.47 -279.74 53.99 -322.16 76.79 -340.66 107.73 -332.87 143.24 -299.49 179.63 -246.98 218.65 -188.39 255.07 -134.68 287.27 -98.54 319.83 -90.27 347.26 -111.6 369 -158.99 390.75 -222.65 406.3 -286.16 416.1 -335.22 426.26 -360.69 431.57 -355.76 433.56 -322.19 438.18 -267.19 442.96 -201.26 451.47 -136.81 468.13 -84.62 494.23 -52.74 533.25 -44.28 583.55 -59.36 646.26 -91.86 717.57 -133.73 786.31 -178.75 847.23 -216.28 888.88 -239.99 902.99 -247.58 886.57 -235.98 842.34 -207.08 787.37 -163.88 736.22 -111.02 710.73 -53.99 727.85 3.89 788.96 57.18 882.01 102.98 976.61 140.38 1042.54 167.89 1053.46 186.34 906.67 194.04 1103.53 175.88 1112.15 175.8 975.9 180.55 972.6 210.08 1131.79 233.43 1166.66 250.22 1105.96 269.55 990.03 291.3Q990.03 291.3 990.03 291.3" opacity="0.24"></path><path d="M919.98 484.98C838.39 504.31 824.63 525.78 883.35 549.12 981.94 572.29 1064.24 596.99 1087 622.65 1039.41 647.56 944.67 672.61 848.52 696.92 793.12 719.32 800.23 739.63 860.09 756.67 977.42 774.75 959.72 778.08 830.02 761.85 748.49 710.24 901 677.21 889.07 708.45 843.64 744.85 780.29 791.38 710.76 845.14 641.6 900.99 583.66 954.62 540.69 1000.19 505.95 1040.16 509.16 1003.67 524.62 938.02 543.28 845.13 516.4 945.14 489.64 1030.97 470.31 1074.29 446.97 1095.75 419.52 1092.2 391.62 1065.36 358.85 1019.33 320.96 962.18 282.31 902.84 238.78 850.17 191.57 811.26 146.34 790.88 101.4 790.08 60.8 806.81 29.87 838.49 10.46 877.75 6.83 917.89 18.07 954.9 45.19 981.5 84.56 994.43 124.3 993.23 158.88 976.71 176.66 947.02 167.22 906.56 128.1 859.02 61.09 808.38 -20.24 756.77 -100.84 708.3 -159.97 665.2 -180.97 627.92 -158.29 598.11 -98.68 575.46 1.52 554.66 -32.5 542.69 -171.88 543.65 -245.91 546.24 -265.6 547.41 -221.11 546.35 -88.78 533.46 -287.5 483.39 -200.01 455.91 -95.66 436.58 -27.32 414.69 -30.61 390.36 -102.3 365.95 -200.23 338.95 -271.26 309.44 -279.94 279.77 -220.54 247.62 -122.9 213.31 -30.9 179.3 15.27 143.8 0.8 107.72 -64.15 73.47 -145.48 40.36 -206.3 9.96 -222.74 -15.94 -185.87 -36.72 -109.99 -50.72 -18.38 -57.87 59.66 -56.84 104.6 -47.22 108.76 -31.77 77.41 -9.85 26.3 16.42 -51.43 53.43 -61.01 87.14 12.18 65.72 78.97 32.67 146.13 -12.65 206.25 -66.89 257.76 -124.28 295.53 -179.29 320.64 -225.14 337.53 -261.94 335.82 -208.66 333.31 -135.07 332.98 -65.21 357.67 -33.97 383.84 -88.98 403.17 -145.2 427.69 -202.46 457.13 -250.44 486.58 -282.32 520.8 -291.34 559.02 -276.58 596.22 -241.11 635.56 -190.11 674.58 -131.63 708.47 -73.62 737.15 -23.93 756.59 11.79 764.98 30.02 759.87 30.44 740.11 15.39 711.72 -12.93 675.37 -47.82 638.38 -83.54 613.33 -117.18 605.38 -142.19 622.85 -155.77 667.62 -157.77 736.2 -146.5 818.25 -123.48 894.7 -90.42 950.18 -49.86 968.84 -4.92 946.73 43.12 890.2 90.66 818.72 135.64 762.96 178.19 744.82 215.94 778.51 248.63 856.57 277.1 953.65 300.84 1032.78 320.72 1061.41 337.18 1027.83 351.2 946.73 363.88 860.01 374.64 809.84 385.39 825.97 396.94 904.47 407.73 1008.08 420.14 1083.6 434.61 1090.71 448.92 1024.33 465.65 919.98 484.98Q919.98 484.98 919.98 484.98" opacity="0.71"></path><path d="M849.98 511.27C751.38 545.1 862.3 571.46 1003.94 589.03 885.65 606.76 857.92 584.21 940.82 562.41 826.2 565.27 679.3 588.01 607.49 639.3 637.98 716.08 718.34 809.71 777.14 899.12 786.82 958.23 736.53 969.25 657.1 925.43 561.68 851.33 478.68 776.33 415.26 741.57 357.5 773.53 313.77 860.23 279.95 960.97 246.12 1023.46 223.8 1011.68 217.76 935.6 228.11 790.55 293.74 762.52 229.22 852.76 118.28 899.29 -10.63 906.78 -85.46 875.48 -57.98 813.5 48.8 734.56 128.19 654.52 74.12 577.42 -84.29 513.91 -190.17 464.18 -126.27 423.99 22.77 391.92 43.86 362.74 -110.83 336.42 -228.61 307.43 -130.01 273.6 31.32 239.78 9.13 202.71 -148.68 165.24 -144.72 115.89 9.84 77.72 -137.85 106.59 -93.79 134.49 47.15 164.87 170.53 182.52 207.77 169.49 160.68 121.9 91.32 40.15 38.49 -56.74 40.95 -144.19 86.52 -190.21 161.66 -179.43 241.55 -114.28 309.55 -24.49 376.98 38.54 427.62 43.48 461.45 -18.98 502.98 -159.65 493.67 -123.58 467.98 22.43 481.03 91.06 534.27 110.39 639.24 86.51 808.56 5.56 734.02 -47.69 674.77 14.48 796.45 80.61 949.27 151.91 972.33 219.32 847.45 285.97 737.91 343.4 811.4 391.52 982.27 437.75 1011.32 477.44 849.98 511.27Q849.98 511.27 849.98 511.27" opacity="0.60"></path><path d="M780.03 318.39C681.98 347.39 743.48 368.53 882.43 383.29 944.63 399.61 858.97 412.95 714.6 427.52 637.38 449.64 681.03 480.31 783.98 524.2 860.25 580.43 843.16 649.98 750.51 727.23 628.4 799.18 536.43 857.31 496.32 887.19 505.19 883.52 539.42 844.66 572.29 780.78 603.58 718.79 613.47 676.87 604.68 675.98 589.9 723.58 565.56 804.94 536.57 890.96 507.57 948.52 475.29 952.11 435.39 903.6 389.5 822.1 326.87 734.79 245.33 668.01 162.21 637.37 80.23 644.51 26.68 678.11 22.1 728.65 72.44 773.92 156.54 801.61 211.19 810.91 193.91 795.65 87.45 761.66 -45.68 713.54 -115.34 658.29 -59.38 603.1 63.74 545.7 132.89 493.89 59.5 449.6 -90.63 405.85 -158 369.22 -59.96 340.22 97.68 301.23 -121.85 269.45 8.04 276.12 152.63 284.82 -30.6 268.13 -12.34 207.66 91.82 141.97 205.6 62.32 287.26 -18.4 325.74 -82.2 324.07 -115.35 305.6 -105.96 274.84 -60.45 255.65 10.35 253.8 80.66 255.01 117.99 271.28 108.54 300.27 51 329.27 -35.01 369.62 -110.51 423.09 -146.93 479.62 -134.86 551.55 -76.45 632.56 6.79 701.28 91.92 750.7 156.8 756.91 190.66 719.94 190.97 647.79 167.22 581.62 133.28 578.94 94.02 658.15 66.1 792.47 54.56 893.77 55.35 890.96 72.43 782.02 100.56 677.69 136.24 685.57 175.65 818.07 214 943.42 253.92 926.07 289.4 780.03 318.39Q780.03 318.39 780.03 318.39" opacity="0.82"></path><path d="M709.98 286.23C617.72 310.39 635.34 338.49 738.97 370.75 845.63 404.08 867.8 443.32 794.18 488.9 673.14 536.3 579.47 589.57 556.09 645.9 603.74 698.33 681.78 746.11 743.9 782.11 768.62 801.61 742.21 800.55 681.5 776.65 599.51 738.17 519.93 688.08 454.85 638.36 399.88 606.51 361.2 599.3 332.69 623.61 308.97 677.85 286.82 749.85 262.66 820.97 238.5 872.11 213.47 886.5 191.62 862.63 174.56 808.72 169.28 737.39 182.38 665.59 225.48 586.86 309.46 573.36 248.93 613.42 155.14 646.12 48.45 671.31 -24.35 685.45 -26.13 692.63 45.87 687.82 149.19 673.63 205.1 654.15 169.18 629.6 53.19 603.25 -59.76 575.49 -82.27 548.73 9.98 524.57 136.8 500.4 191.29 479.98 136.97 462.18 20.79 442.95 -59.78 423.55 -47.96 401.17 46.83 373.48 164.74 338.51 241.77 294.09 248.9 242.71 197.21 182.83 127.25 118.46 67.08 58.26 48.97 6.54 72.42 -27.16 128.56 -37.77 200.04 -21.4 269.51 20.58 338.26 74.67 393.06 132.25 434.53 176.84 472.36 191.39 502.22 172.13 526.38 121 550.54 49.88 567.87 -17.22 575.61 -62.15 579.7 -77.15 568.85 -56.18 541.98 -6.63 514.38 60.8 482.69 132.55 463.79 196.2 477.59 245.25 530.39 274.97 622.23 287.14 764.03 276.27 722.23 228.7 597.03 216.43 602.91 212.72 697.25 217.44 822.76 229.68 886.39 242.99 836.8 262.07 709.98 286.23Q709.98 286.23 709.98 286.23" opacity="0.81"></path><path d="M639.98 478.12C558.39 497.45 543.33 521.25 596.69 548.42 689.5 574.96 768.57 603.52 796.73 631.95 764.92 657.34 686.64 679.38 595 694.99 494.69 703.13 516.18 655.2 577.91 604.74 625.02 557.74 621.59 535.79 590.43 582.86 565.22 635.24 541.54 694.75 522.21 750.97 502.88 794.29 488.82 814.64 477.57 809.98 463.34 783.37 446.06 738.43 419.9 683.39 383.45 624.86 331.81 570.51 264.82 525.64 194.4 492.34 124.43 471.88 71.79 462.43 51.88 463.65 71.95 470.63 130.64 479.47 213 504.35 -7.17 489.6 79.98 463.56 184.32 444.23 253.24 419.92 254.01 391.04 189.54 361.84 99.72 327.63 30.91 289.07 10.12 250.55 48.09 208.86 124.98 166.39 216.64 127.75 292.62 93.02 337.45 66.46 348.24 50.57 331.32 48.11 301.33 61.28 262.09 86.01 230.57 123.02 212.17 167.38 200.55 225.23 233.44 246.44 261.52 191 280.85 134.78 301.1 79.18 324.26 34.25 350.36 4.12 384.53 -3.85 430.14 9.84 482.05 41.64 545.4 87.51 614.43 140.37 674.21 196.22 718.89 248.63 733.43 293.89 713.94 331.91 660.88 360.82 589.35 381.9 532.58 396.08 511.95 405.87 546.9 413.98 629.89 419.05 730.7 425.65 802.64 435.56 809.32 444.85 744.33 458.79 639.98 478.12Q639.98 478.12 639.98 478.12" opacity="0.20"></path><path d="M570.03 516.13C499.66 553.47 694.36 547.44 555.69 497.21 439.07 467.77 372.09 448.82 344.92 460.3 342.09 512.23 335.97 594.95 306.98 680.96 277.98 738.52 228.86 739.66 181.44 692.15 158.37 614.67 180.09 530.15 258.71 459.56 333.36 404.58 354.64 368.73 263.14 343.78 119.09 326.49 51.98 306.35 150.03 277.35 296.06 248.36 323.78 213.26 229.16 180.31 113.51 155.01 95.63 145.6 169.02 162.57 287.8 195.16 386.84 248.92 445.96 305.14 482.35 331.41 505.52 318.53 534.51 260.99 579.54 139.48 573.68 107.93 466 200.23 430.62 276.68 479.25 345.49 616.15 399.29 732.03 448.58 716.06 487.14 570.03 516.13Q570.03 516.13 570.03 516.13" opacity="0.69"></path><path d="M499.98 325.41C418.39 344.74 400.77 353.24 442.68 353.72 521.91 356.71 590.53 356.96 623.49 360.59 625.17 375.11 596.02 401.53 557.18 442.13 510.14 494.63 472.32 554.76 452.99 610.97 434.16 663.35 453.03 620.19 425.51 553.86 367.2 503.55 278.08 456.87 184.69 418.63 128.6 381.27 138.39 352.02 219.98 332.7 266.17 351.36 251.01 387.27 284.93 330.97 304.25 274.76 311.91 222.46 317.16 184.14 333.37 157.7 366.95 151.79 429.17 162.6 508.94 184.31 598.52 214.22 661.06 244.74 666.52 277.74 604.36 306.07 500.03 325.4Q499.98 325.41 499.98 325.41" opacity="0.75"></path></g></svg>